<svg width="899" height="384" viewBox="0 0 899 384" fill="none" xmlns="http://www.w3.org/2000/svg">
<path d="M858.331 285.412L855.518 310.605L848.534 373.18H708.249C709.344 359.155 710.842 338.968 712.442 317.175C712.6 314.999 712.765 312.809 712.923 310.605C716.935 255.825 721.325 193.835 721.325 193.835L739.768 197.699L775.55 205.181L790.131 208.228L829.177 216.403C848.645 220.471 862.036 252.166 858.331 285.412V285.412Z" fill="#F2F2F2"/>
<path d="M752.218 92.4662L769.469 126.412L736.312 152.835L722.167 111.109L752.218 92.4662Z" fill="#FFB6B6"/>
<path d="M730.257 124.579C753.86 124.579 772.994 103.064 772.994 76.5229C772.994 49.982 753.86 28.4663 730.257 28.4663C706.653 28.4663 687.519 49.982 687.519 76.5229C687.519 103.064 706.653 124.579 730.257 124.579Z" fill="#FFB6B6"/>
<path d="M727.187 87.2664C723.794 81.4589 725.126 78.4214 722.285 76.2872C722.285 76.2871 721.141 75.4283 712.959 74.9387C711.128 60.1131 708.841 58.3152 708.841 58.3152C706.205 56.2431 702.294 56.9164 699.861 58.1837C694.714 60.864 695.311 66.6539 691.846 67.7618C687.059 69.2924 678.35 60.6641 677.492 50.7865C676.792 42.7291 681.409 34.9034 683.24 35.3174C685.055 35.7279 689.402 29.4881 691.749 29.5843C693.352 29.65 699.901 26.4494 701.662 26.6996C703.586 26.9729 709.93 30.6953 710.194 29.8448C712.031 23.9351 711.491 22.2953 713.05 20.6047C715.812 17.6088 720.33 19.6951 727.418 20.8151C742.002 23.1195 744.547 17.7123 752.021 21.3773C755.797 23.2288 758.956 28.2218 765.12 38.1323C773.741 51.9921 778.051 58.9219 778.079 67.0047C778.107 75.2476 774.557 74.7243 772.998 86.9273C771.262 100.511 774.95 106.723 770.921 111.136C767.807 114.546 761.478 115.356 758.153 112.363C752.46 107.238 759.91 94.8707 753.61 85.8354C749.743 80.2892 741.965 77.8214 738.402 80.563C734.374 83.6628 736.593 92.7615 733.76 93.6243C731.334 94.3632 727.779 88.2784 727.187 87.2664L727.187 87.2664Z" fill="#2F2E41"/>
<path d="M826.742 276.541C825.55 299.46 820.815 306.695 819.157 333.762C818.795 339.705 818.577 346.603 818.577 354.829C818.577 356.926 818.587 358.954 818.587 360.935C818.587 365.152 818.515 369.138 818.079 373.18C817.748 376.408 817.179 379.659 816.235 383.084H724.189C724.178 383.061 724.178 383.038 724.167 383.014C723.629 380.381 723.287 377.864 723.028 375.453C722.945 374.684 722.872 373.926 722.81 373.18C722.727 372.307 722.655 371.445 722.583 370.594C722.302 367.203 722.023 363.999 721.359 360.935C720.469 356.705 718.852 352.72 715.536 348.875C714.179 347.302 712.822 346.079 711.495 345.007C711.236 344.808 710.987 344.61 710.728 344.412C707.06 341.581 703.589 339.542 700.583 333.762C700.532 333.681 700.49 333.588 700.449 333.506C699.931 332.493 698.584 329.836 697.609 326.294C696.583 322.612 695.962 317.986 697.081 313.256C699.744 302.047 709.609 300.928 717.671 289.602C718.541 288.379 719.401 287.027 720.22 285.524C723.867 278.859 724.851 272.987 726.012 266.008C726.198 264.877 726.364 263.759 726.499 262.675C726.603 261.859 726.696 261.056 726.769 260.263C727.411 253.61 727.1 247.877 726.344 242.751C723.878 225.96 716.603 215.567 721.743 200.501C723.36 195.771 725.65 192.217 727.96 189.176C732.851 182.732 737.877 178.549 737.007 170.231C736.125 161.841 730.468 160.687 729.836 153.358C729.514 149.653 730.592 145.75 732.613 141.916V141.905C739.079 129.565 755.223 118.205 765.481 118.566C767.378 118.625 769.056 119.102 770.455 120.023C775.523 123.378 773.409 130.707 781.17 140.984C786.941 148.616 793.469 151.669 795.946 153.114C805.759 158.87 813.738 175.846 819.157 197.554C819.198 197.717 819.24 197.88 819.281 198.055C822.629 211.652 824.992 227.091 826.162 242.751C826.659 249.381 826.95 256.046 827.011 262.64C827.064 267.907 826.96 272.475 826.742 276.541Z" fill="#5C7CFA"/>
<path d="M757.815 355.06L755.939 360.933L754.758 364.615L752.022 373.179L748.851 383.083H728.469L731.889 373.179L733.474 368.565L736.106 360.933L740.52 348.116L757.815 355.06Z" fill="#FFB6B6"/>
<path d="M819.48 195.548C819.428 196.305 819.355 197.144 819.283 198.053C818.475 207.305 816.568 223.862 813.781 242.749C812.309 252.711 810.589 263.326 808.651 273.871C804.486 296.627 799.305 319.033 793.45 333.761C792.404 336.418 791.326 338.818 790.227 340.938C789.388 342.558 788.507 344.154 787.585 345.727C784.601 350.889 781.253 355.783 777.782 360.35C777.648 360.548 777.492 360.735 777.337 360.933C776.778 361.678 776.197 362.413 775.617 363.147C772.777 366.747 769.876 370.103 767.068 373.179C763.649 376.931 760.353 380.252 757.4 383.083H724.303L724.169 383.013L719.402 380.636C719.402 380.636 720.759 378.841 723.029 375.451C723.496 374.763 723.992 374.006 724.532 373.179C725.195 372.165 725.91 371.046 726.676 369.835C728.272 367.295 730.085 364.312 732.033 360.933C735.806 354.396 740.105 346.356 744.448 337.047C744.945 335.963 745.452 334.868 745.96 333.761C745.97 333.726 745.992 333.691 746.002 333.656C746.862 331.768 747.712 329.823 748.561 327.842C755.763 310.993 757.825 297.011 758.416 292.479C759.245 286.07 760.394 277.11 760.084 267.252C759.876 260.751 759.037 253.876 757.038 247.049V247.037C756.623 245.604 756.157 244.171 755.628 242.749C754.685 240.197 753.566 237.68 752.239 235.199C746.385 224.27 741.629 223.815 737.847 211.907C736.728 208.376 734.189 200.407 734.966 191.994V191.983C735.06 190.945 735.215 189.897 735.422 188.848V188.836C735.474 188.545 735.547 188.242 735.619 187.951C736.209 185.376 737.184 182.824 738.665 180.4C741.556 175.693 745.504 172.897 749.038 171.231L749.049 171.219C753.131 169.308 756.654 168.9 757.338 168.83C772.477 167.316 784.217 181.624 790.632 189.442C793.108 192.46 795.378 194.989 797.45 197.051C813.583 213.247 818.009 202.9 819.158 197.552C819.334 196.725 819.428 196.014 819.48 195.548V195.548Z" fill="#5C7CFA"/>
<path d="M819.532 194.942C819.532 195 819.521 195.198 819.48 195.525C819.5 195.35 819.511 195.175 819.521 195.012C819.521 194.977 819.521 194.954 819.532 194.942Z" fill="#FFA94D"/>
<path d="M243.582 94.6987L278.589 78.1326L293.604 112.745L256.817 129.629L243.582 94.6987Z" fill="#FFB6B6"/>
<path opacity="0.1" d="M243.582 94.6987L278.589 78.1326L293.604 112.745L256.817 129.629L243.582 94.6987Z" fill="black"/>
<path d="M248.559 81.5094L283.094 126.252C283.094 126.252 259.069 211.516 235.045 219.113C211.021 226.711 166.726 263.856 166.726 263.856L111.169 223.334L138.197 178.592C138.197 178.592 203.513 78.1326 220.78 78.1326C238.048 78.1326 248.559 81.5093 248.559 81.5093V81.5094Z" fill="#5C7CFA"/>
<path d="M201.899 373.18H121.508L116.425 365.54L95.6741 334.347L90.8993 327.171C90.8993 327.171 72.881 290.026 76.6349 256.258C80.3887 222.491 119.428 214.893 119.428 214.893H121.035L168.828 262.117L165.975 306.066L181.111 334.347L201.899 373.18Z" fill="#2F2E41"/>
<path d="M137.972 373.18H116.425V337.301L137.972 373.18Z" fill="#2F2E41"/>
<path d="M602.707 318.713L600.027 334.347L593.375 373.18H459.747C460.791 364.477 462.217 351.949 463.741 338.425C463.891 337.074 464.049 335.715 464.199 334.347C468.02 300.351 472.202 261.881 472.202 261.881L489.77 264.279L523.854 268.922L537.743 270.813L574.936 275.887C593.48 278.411 606.235 298.081 602.707 318.713H602.707Z" fill="#F2F2F2"/>
<path d="M791.816 373.179H719.337C720.441 371.719 721.064 370.875 721.064 370.875L742.791 366.839L787.559 358.532C787.559 358.532 789.601 364.467 791.816 373.179V373.179Z" fill="#2F2E41"/>
<path d="M484.383 111.584L515.902 161.707L460.922 163.553L455.02 116.449L484.383 111.584Z" fill="#A0616A"/>
<path opacity="0.1" d="M484.383 111.584L515.902 161.707L460.922 163.553L455.02 116.449L484.383 111.584Z" fill="black"/>
<path d="M328.941 215.437C324.897 202.318 315.599 194.03 308.175 196.926C300.75 199.821 298.012 212.802 302.059 225.925C303.612 231.192 306.264 235.964 309.793 239.842L327.553 295.184L350.472 285.259L330.53 231.755C331.167 226.251 330.622 220.655 328.941 215.437Z" fill="#A0616A"/>
<path d="M542.299 189.896L542.256 240.978L538.03 259.846L529.336 298.654L523.007 334.346L518.292 360.939L516.61 370.436C515.342 371.39 514.08 372.301 512.819 373.179H403.005C396.766 368.967 393.275 365.691 393.275 365.691C393.275 365.691 395.002 363.868 396.977 360.939C400.31 355.992 404.342 347.887 401.872 340.146C401.354 338.525 401.218 336.55 401.376 334.346C402.382 319.809 415.941 295.226 415.941 295.226L413.133 258.74L411.902 242.751L420.583 164.789L448.879 146.293L453.764 145.761L501.986 142.832L521.916 144.124L522.825 144.402L542.299 189.896V189.896Z" fill="#CCCCCC"/>
<path d="M544.441 373.181H520.417L519.358 360.94L519.335 360.695L526.137 360.172L543.833 358.812L544.141 366.14L544.381 371.762L544.441 373.181Z" fill="#FFB6B6"/>
<path d="M550.355 202.248L560.447 268.829L552.211 334.348L550.927 344.545L548.66 362.552L547.962 368.09L547.984 368.689L548.157 373.181H519.628L518.577 360.94L518.487 359.842L516.34 334.77L516.302 334.348L511.745 281.18L520.679 242.752L521.34 239.924V239.916L525.227 174.119L522.216 144.218L522.186 143.939C522.246 143.981 522.299 144.023 522.359 144.066C522.517 144.175 522.674 144.285 522.824 144.403C540.362 156.914 550.813 178.863 550.355 202.248Z" fill="#CCCCCC"/>
<path d="M430.803 177.548L419.832 164.788C419.832 164.788 396.347 176.693 395.176 183.298C394.006 189.903 352.54 286.912 352.54 286.912L334.499 232.733L311.017 250.363C311.017 250.363 329.859 334.479 347.481 338.428C365.103 342.377 424.162 238.868 424.162 238.868L430.803 177.548H430.803Z" fill="#CCCCCC"/>
<path d="M876.263 333.761H21.9264C9.83391 333.761 0 344.83 0 358.428C0 372.025 9.8339 383.083 21.9264 383.083H876.263C888.356 383.083 898.2 372.026 898.2 358.428C898.2 344.83 888.356 333.761 876.263 333.761Z" fill="#E6E6E6"/>
<path d="M537.3 258.598L535.639 345.756C535.478 354.193 529.349 360.938 521.844 360.938H379.259C371.931 360.938 365.882 354.498 365.482 346.271L361.244 259.113C360.812 250.225 367.105 242.751 375.021 242.751H523.505C531.241 242.751 537.466 249.901 537.3 258.598Z" fill="#3F3D56"/>
<path d="M307.118 115.738C325.959 115.738 341.232 98.5639 341.232 77.3785C341.232 56.193 325.959 39.0188 307.118 39.0188C288.278 39.0188 273.004 56.193 273.004 77.3785C273.004 98.5639 288.278 115.738 307.118 115.738Z" fill="#FFB6B6"/>
<path d="M250.06 177.749L253.814 223.335L279.34 338.99L257.287 347.681L220.03 221.647L214.884 170.995L250.06 177.749Z" fill="#FFB6B6"/>
<path d="M239.906 258.598L238.245 345.756C238.084 354.193 231.956 360.938 224.451 360.938H81.865C74.5374 360.938 68.488 354.498 68.088 346.271L63.8506 259.113C63.4185 250.225 69.7115 242.751 77.6276 242.751H226.112C233.847 242.751 240.072 249.901 239.906 258.598Z" fill="#3F3D56"/>
<path d="M283.405 361.528C298.284 361.528 310.346 355.529 310.346 348.129C310.346 340.729 298.284 334.729 283.405 334.729C268.525 334.729 256.463 340.729 256.463 348.129C256.463 355.529 268.525 361.528 283.405 361.528Z" fill="#FFB6B6"/>
<path d="M197.132 184.717L212.522 92.4839C212.522 92.4839 255.316 85.7303 256.817 101.77C258.319 117.81 255.744 196.198 255.744 196.198L197.132 184.717V184.717Z" fill="#5C7CFA"/>
<path d="M293.347 83.4103C293.347 83.4103 314.449 74.9414 323.351 70.3847C332.253 65.828 349.937 97.6106 350.331 80.8252C350.724 64.0397 344.613 57.0006 344.613 57.0006C344.613 57.0006 343.087 20.2801 310.187 24.871C310.187 24.871 317.424 6.49929 293.669 3.65844C269.914 0.817594 232.958 65.3207 236.268 74.9603C239.577 84.5999 243.545 92.5694 234.155 102.876C224.765 113.183 207.182 171.353 220.56 187.006C233.938 202.659 234.815 209.451 225.649 219.189C216.484 228.927 194.818 250.102 218.243 253.778C241.669 257.454 216.1 254.708 233.565 237.435C251.029 220.161 276.513 220.867 266.997 193.153C257.482 165.439 274.014 125.725 271.945 119.7C269.877 113.675 276.58 75.4176 276.58 75.4176C276.58 75.4176 292.18 72.8403 293.347 83.4104V83.4103Z" fill="#2F2E41"/>
<path d="M467.53 129.727C488.04 129.727 504.666 111.031 504.666 87.9693C504.666 64.9074 488.04 46.212 467.53 46.212C447.021 46.212 430.395 64.9074 430.395 87.9693C430.395 111.031 447.021 129.727 467.53 129.727Z" fill="#A0616A"/>
<path d="M470.494 31.8296C469.42 32.5349 467.98 31.4678 467.636 30.1234C467.291 28.779 467.692 27.3517 468.09 26.0261L470.094 19.3529C471.515 14.6202 473.023 9.72207 476.101 6.11984C480.746 0.682854 488.128 -0.70029 494.774 0.30175C503.308 1.58857 511.728 6.78484 515.696 15.3776C519.665 23.9703 517.975 35.9602 510.805 41.3212C521.024 54.4916 524.586 69.1696 524.024 86.6367C523.461 104.104 506.533 120.179 495.494 132.484C493.029 130.804 490.787 122.929 492.143 120.068C493.499 117.207 491.556 113.892 493.235 111.257C494.914 108.622 496.319 112.818 494.622 110.198C493.551 108.544 497.731 104.741 496.139 103.751C488.438 98.9646 485.877 88.1714 481.04 79.9062C475.207 69.9368 465.222 63.1855 454.656 62.0654C448.835 61.4484 442.687 62.5659 437.916 66.3656C433.146 70.1653 430.057 76.9554 431.163 83.4106C428.298 80.1393 426.872 75.3452 427.41 70.7938C427.948 66.2424 430.438 62.0336 433.964 59.7173C431.82 51.7459 433.656 42.5764 438.632 36.4078C443.608 30.2392 463.792 31.2898 471.056 32.9133L470.494 31.8296Z" fill="#2F2E41"/>
<path d="M471.622 62.3074C481.243 63.4752 488.19 72.8465 494.056 81.5008C497.437 86.4889 500.978 91.9975 500.893 98.2685C500.808 104.609 497.038 110.047 495.236 116.055C492.291 125.877 495.161 137.562 502.172 144.291C495.245 145.769 487.757 139.929 486.561 132.116C485.169 123.02 491.3 114.242 490.574 105.049C489.934 96.9499 484.258 90.7167 479.433 84.6611C474.607 78.6054 470.075 70.5697 472.295 62.8314L471.622 62.3074Z" fill="#2F2E41"/>
<path d="M615.457 339.04C605.927 345.135 600.999 355.604 604.449 362.423C607.9 369.242 618.421 369.828 627.953 363.729C631.791 361.352 635.066 357.976 637.506 353.883L677.594 327.485L666.176 306.596L627.869 334.837C623.492 335.103 619.236 336.544 615.457 339.04Z" fill="#FFB6B6"/>
<path d="M751.187 145.462C749.989 144.928 739.478 140.452 729.881 146.361C718.858 153.15 717.155 168.647 716.558 174.083C715.179 186.638 719.243 189.453 720.101 202.164C721.706 225.945 725.938 198.815 719.179 209.671C716.839 213.428 692.945 271.656 679.767 283.061C654.138 305.243 637.863 320.864 637.863 320.864L656.443 343.559C656.443 343.559 685.802 334.762 711.752 315.816C738.371 296.381 751.68 286.663 761.977 267.653C762.863 266.016 784.08 225.502 772.686 180.703C770.087 170.484 765.325 151.761 751.187 145.462Z" fill="#5C7CFA"/>
<path d="M847.127 258.598L845.466 345.756C845.305 354.193 839.176 360.938 831.671 360.938H689.086C681.758 360.938 675.709 354.498 675.309 346.271L671.071 259.113C670.639 250.225 676.932 242.751 684.848 242.751H833.332C841.068 242.751 847.292 249.901 847.127 258.598Z" fill="#3F3D56"/>
</svg>
